<svg width="16" height="16" viewBox="0 0 16 16" fill="none" xmlns="http://www.w3.org/2000/svg">
<path fill-rule="evenodd" clip-rule="evenodd" d="M11.5355 3.05028C11.9261 2.65975 12.5592 2.65975 12.9497 3.05028C13.3403 3.4408 13.3403 4.07397 12.9497 4.46449L9.41421 8.00003L12.9497 11.5356C13.3403 11.9261 13.3403 12.5592 12.9497 12.9498C12.5592 13.3403 11.9261 13.3403 11.5355 12.9498L8 9.41424L4.46446 12.9498C4.07394 13.3403 3.44077 13.3403 3.05025 12.9498C2.65972 12.5592 2.65972 11.9261 3.05025 11.5356L6.58578 8.00003L3.05025 4.46449C2.65972 4.07397 2.65972 3.4408 3.05025 3.05028C3.44077 2.65975 4.07394 2.65975 4.46446 3.05028L8 6.58581L11.5355 3.05028Z" fill="#EB4B51"/>
</svg>
