<svg width="178" height="178" viewBox="0 0 178 178" fill="none" xmlns="http://www.w3.org/2000/svg">
<path fill-rule="evenodd" clip-rule="evenodd" d="M100.778 10.1655V10.5965H99.0322L99.032 12.4378L100.648 13.182L101.65 13.1824V13.6134L101.582 13.6125L116.822 20.6321L116.268 21.8039L98.4851 13.6125L92.9236 13.6134L92.923 25.9406L99.0797 37.875L97.9134 38.462L92.923 28.7879L92.9236 30.0768H92.4873V28.3528L92.699 28.3524L91.765 26.5423H89.869L89.8693 27.4047H89.433V13.6134H49.2907V42.058H62.3806V48.0917H76.3431V40.334H89.433V38.6101H92.9236L92.923 48.0911L104.268 48.0917V48.5226H102.523V51.1085H104.268V51.5395H49.2907V139.459L61.675 139.459L61.6488 139.392L75.4986 134.14L75.9677 135.347L65.122 139.459L66.7439 139.459V139.89H64.9985L64.998 139.507L64.125 139.837L64.1259 139.89L63.986 139.89L63.253 140.168V142.475L64.1259 142.476V142.907H48.418V168.766H129.575V142.907H108.631V141.786H107.933L107.933 141.441H87.5131L87.5131 141.786H86.815V142.907H77.2158L77.215 142.905L75.4732 142.906V142.475L77.215 142.475L77.2158 139.89H75.4705V139.459H86.815V140.58H87.5131L87.5131 141.01H107.933L107.933 140.58H108.631V139.459H128.703V51.5395H115.613L115.612 51.3391L104.883 56.9745L104.268 55.8329L112.994 51.2491L112.995 51.1085L113.264 51.1076L115.612 49.8745L115.613 48.0917H128.703V24.8188H119.976V13.6134H115.613V13.1824H117.358V10.1655H123.467V21.371H132.193V142.907H131.321V170.49H46.6727V142.907H45.8L45.8 10.1655H100.778ZM96.0427 154.176C96.1563 154.176 96.262 154.182 96.3597 154.193C96.4574 154.204 96.5438 154.222 96.6188 154.247V154.89H96.5881C96.5268 154.857 96.4381 154.826 96.3222 154.798C96.2063 154.77 96.0825 154.756 95.9507 154.756C95.528 154.756 95.1865 154.896 94.9263 155.178C94.6661 155.46 94.5121 155.878 94.4644 156.432C94.6258 156.32 94.7917 156.234 94.9621 156.173C95.1325 156.112 95.3189 156.082 95.5212 156.082C95.7189 156.082 95.8921 156.102 96.041 156.141C96.1899 156.18 96.345 156.26 96.5063 156.378C96.6927 156.518 96.8313 156.694 96.9222 156.907C97.0131 157.12 97.0585 157.371 97.0585 157.658C97.0585 157.916 97.0154 158.154 96.929 158.372C96.8426 158.589 96.7267 158.771 96.5813 158.917C96.429 159.072 96.2586 159.189 96.07 159.269C95.8814 159.349 95.6734 159.389 95.4462 159.389C95.2166 159.389 95.0081 159.35 94.8206 159.274C94.6332 159.198 94.4678 159.084 94.3247 158.934C94.1497 158.752 94.0128 158.509 93.9139 158.205C93.815 157.901 93.7656 157.527 93.7656 157.082C93.7656 156.647 93.8111 156.253 93.902 155.902C93.9929 155.551 94.1326 155.245 94.3213 154.985C94.5053 154.731 94.7428 154.533 95.0337 154.39C95.3246 154.248 95.6609 154.176 96.0427 154.176ZM92.2316 154.176C92.3453 154.176 92.4509 154.182 92.5487 154.193C92.6464 154.204 92.7327 154.222 92.8077 154.247V154.89H92.7771C92.7157 154.857 92.6271 154.826 92.5112 154.798C92.3953 154.77 92.2714 154.756 92.1396 154.756C91.7169 154.756 91.3755 154.896 91.1152 155.178C90.855 155.46 90.7011 155.878 90.6534 156.432C90.8147 156.32 90.9806 156.234 91.151 156.173C91.3215 156.112 91.5078 156.082 91.7101 156.082C91.9078 156.082 92.0811 156.102 92.2299 156.141C92.3788 156.18 92.5339 156.26 92.6952 156.378C92.8816 156.518 93.0202 156.694 93.1111 156.907C93.202 157.12 93.2475 157.371 93.2475 157.658C93.2475 157.916 93.2043 158.154 93.1179 158.372C93.0316 158.589 92.9157 158.771 92.7702 158.917C92.618 159.072 92.4475 159.189 92.2589 159.269C92.0703 159.349 91.8624 159.389 91.6351 159.389C91.4056 159.389 91.1971 159.35 91.0096 159.274C90.8221 159.198 90.6568 159.084 90.5136 158.934C90.3386 158.752 90.2017 158.509 90.1028 158.205C90.004 157.901 89.9545 157.527 89.9545 157.082C89.9545 156.647 90 156.253 90.0909 155.902C90.1818 155.551 90.3216 155.245 90.5102 154.985C90.6943 154.731 90.9317 154.533 91.2226 154.39C91.5135 154.248 91.8498 154.176 92.2316 154.176ZM86.7741 154.271V157.022H87.3775V157.56H86.7741V159.284H86.1196V157.56H83.8766V156.853L86.1469 154.271H86.7741ZM89.0137 158.325V159.284H88.199V158.325H89.0137ZM91.5601 156.634C91.401 156.634 91.2465 156.658 91.0965 156.705C90.9465 156.752 90.7988 156.821 90.6534 156.91C90.6488 156.96 90.6454 157.008 90.6431 157.054C90.6409 157.1 90.6397 157.157 90.6397 157.227C90.6397 157.575 90.6744 157.855 90.7437 158.069C90.813 158.282 90.8988 158.444 91.0011 158.554C91.0988 158.659 91.1993 158.733 91.3027 158.776C91.4061 158.818 91.5181 158.84 91.6385 158.84C91.9112 158.84 92.1322 158.743 92.3015 158.55C92.4708 158.357 92.5555 158.069 92.5555 157.685C92.5555 157.478 92.5282 157.306 92.4737 157.166C92.4191 157.027 92.3305 156.908 92.2078 156.809C92.1191 156.738 92.0186 156.69 91.9061 156.668C91.7936 156.646 91.6783 156.634 91.5601 156.634ZM95.3712 156.634C95.2121 156.634 95.0576 156.658 94.9076 156.705C94.7576 156.752 94.6099 156.821 94.4644 156.91C94.4599 156.96 94.4565 157.008 94.4542 157.054C94.4519 157.1 94.4508 157.157 94.4508 157.227C94.4508 157.575 94.4854 157.855 94.5548 158.069C94.6241 158.282 94.7099 158.444 94.8121 158.554C94.9098 158.659 95.0104 158.733 95.1138 158.776C95.2172 158.818 95.3291 158.84 95.4496 158.84C95.7223 158.84 95.9433 158.743 96.1126 158.55C96.2819 158.357 96.3665 158.069 96.3665 157.685C96.3665 157.478 96.3393 157.306 96.2847 157.166C96.2302 157.027 96.1416 156.908 96.0188 156.809C95.9302 156.738 95.8297 156.69 95.7172 156.668C95.6047 156.646 95.4893 156.634 95.3712 156.634ZM86.1196 155.062L84.4084 157.022H86.1196V155.062ZM71.9798 142.476V142.907H70.2345V142.476H71.9798ZM66.7439 142.476V142.907H64.9985V142.476H66.7439ZM74.5978 142.476V142.907H72.8525V142.476H74.5978ZM69.3618 142.476V142.907H67.6165V142.476H69.3618ZM69.3618 139.459V139.89H67.6165V139.459H69.3618ZM71.9798 139.459V139.89H70.2345V139.459H71.9798ZM74.5978 139.459V139.89H72.8525V139.459H74.5978ZM107.462 129.159C107.924 129.159 108.293 129.279 108.572 129.518C108.85 129.757 108.989 130.063 108.989 130.436C108.989 130.66 108.923 130.882 108.79 131.102C108.657 131.322 108.466 131.494 108.216 131.617V131.638C108.511 131.775 108.735 131.941 108.887 132.136C109.039 132.331 109.116 132.583 109.116 132.89C109.116 133.319 108.958 133.678 108.643 133.968C108.329 134.257 107.935 134.402 107.462 134.402C107.21 134.402 106.98 134.365 106.774 134.291C106.567 134.217 106.391 134.11 106.245 133.971C106.102 133.836 105.994 133.676 105.92 133.491C105.846 133.306 105.809 133.11 105.809 132.904C105.809 132.632 105.882 132.382 106.029 132.154C106.175 131.927 106.388 131.745 106.668 131.611V131.59C106.418 131.447 106.233 131.29 106.112 131.119C105.992 130.948 105.932 130.735 105.932 130.479C105.932 130.102 106.076 129.788 106.365 129.537C106.653 129.285 107.019 129.159 107.462 129.159ZM113.387 129.173C113.946 129.173 114.356 129.39 114.617 129.823C114.879 130.256 115.009 130.908 115.009 131.779C115.009 132.679 114.877 133.34 114.612 133.761C114.348 134.181 113.939 134.392 113.387 134.392C112.828 134.392 112.418 134.177 112.156 133.749C111.895 133.32 111.764 132.666 111.764 131.786C111.764 130.881 111.897 130.22 112.161 129.801C112.426 129.382 112.835 129.173 113.387 129.173ZM117.198 129.173C117.757 129.173 118.167 129.39 118.428 129.823C118.69 130.256 118.82 130.908 118.82 131.779C118.82 132.679 118.688 133.34 118.423 133.761C118.159 134.181 117.75 134.392 117.198 134.392C116.639 134.392 116.229 134.177 115.967 133.749C115.706 133.32 115.575 132.666 115.575 131.786C115.575 130.881 115.708 130.22 115.972 129.801C116.237 129.382 116.646 129.173 117.198 129.173ZM110.83 133.328V134.287H110.015V133.328H110.83ZM104.091 129.257V133.776H104.991V134.287H102.516V133.776H103.436V130.415H102.516V129.957C102.864 129.957 103.12 129.909 103.285 129.811C103.45 129.713 103.542 129.529 103.563 129.257H104.091ZM107.077 131.779C106.888 131.902 106.744 132.055 106.644 132.235C106.544 132.416 106.494 132.622 106.494 132.853C106.494 133.156 106.587 133.406 106.772 133.604C106.957 133.801 107.19 133.9 107.469 133.9C107.755 133.9 107.985 133.815 108.158 133.646C108.33 133.477 108.417 133.246 108.417 132.954C108.417 132.748 108.376 132.584 108.294 132.463C108.212 132.341 108.054 132.218 107.82 132.092C107.743 132.049 107.64 132.003 107.512 131.954C107.383 131.905 107.238 131.846 107.077 131.779ZM113.387 129.728C113.198 129.728 113.043 129.773 112.922 129.861C112.8 129.95 112.704 130.082 112.633 130.257C112.565 130.428 112.519 130.643 112.494 130.904C112.469 131.164 112.456 131.458 112.456 131.786C112.456 132.136 112.467 132.429 112.489 132.665C112.51 132.9 112.557 133.111 112.63 133.298C112.696 133.47 112.79 133.603 112.911 133.697C113.033 133.79 113.191 133.836 113.387 133.836C113.575 133.836 113.731 133.792 113.852 133.703C113.974 133.615 114.069 133.483 114.137 133.308C114.203 133.142 114.249 132.932 114.277 132.678C114.304 132.424 114.317 132.125 114.317 131.779C114.317 131.436 114.304 131.137 114.277 130.883C114.249 130.63 114.202 130.419 114.133 130.25C114.065 130.08 113.971 129.95 113.852 129.861C113.733 129.773 113.578 129.728 113.387 129.728ZM117.198 129.728C117.009 129.728 116.854 129.773 116.733 129.861C116.611 129.95 116.515 130.082 116.445 130.257C116.376 130.428 116.33 130.643 116.305 130.904C116.28 131.164 116.267 131.458 116.267 131.786C116.267 132.136 116.278 132.429 116.3 132.665C116.321 132.9 116.368 133.111 116.441 133.298C116.507 133.47 116.601 133.603 116.722 133.697C116.844 133.79 117.002 133.836 117.198 133.836C117.386 133.836 117.542 133.792 117.663 133.703C117.785 133.615 117.88 133.483 117.948 133.308C118.014 133.142 118.06 132.932 118.088 132.678C118.115 132.424 118.128 132.125 118.128 131.779C118.128 131.436 118.115 131.137 118.088 130.883C118.06 130.63 118.013 130.419 117.944 130.25C117.876 130.08 117.782 129.95 117.663 129.861C117.544 129.773 117.389 129.728 117.198 129.728ZM107.459 129.654C107.211 129.654 107.008 129.722 106.85 129.856C106.692 129.991 106.613 130.173 106.613 130.402C106.613 130.568 106.654 130.708 106.734 130.823C106.815 130.937 106.936 131.041 107.098 131.133C107.168 131.171 107.275 131.223 107.42 131.291C107.564 131.358 107.695 131.411 107.813 131.449C108.011 131.299 108.145 131.144 108.216 130.986C108.286 130.828 108.321 130.647 108.321 130.442C108.321 130.218 108.245 130.03 108.093 129.88C107.941 129.73 107.729 129.654 107.459 129.654ZM109.504 51.1085V51.5395H107.759V51.1085H109.504ZM106.886 51.1085V51.5395H105.141V51.1085H106.886ZM112.122 51.1085V51.5395H110.377V51.1085H112.122ZM106.886 48.0917V48.5226H105.141V48.0917H106.886ZM114.74 48.0917V48.5226H112.995V48.0917H114.74ZM112.122 48.0917V48.5226H110.377V48.0917H112.122ZM109.504 48.0917V48.5226H107.759V48.0917H109.504ZM60.6353 43.7819H49.2907V48.0917H60.6353V43.7819ZM89.433 42.058H78.0884V48.0917L89.432 48.0911L89.433 42.058ZM92.9236 36.1105V37.8344H92.4873V36.1105H92.9236ZM89.8693 36.0243V37.7482H89.433V36.0243H89.8693ZM114.706 31.7178C115.265 31.7178 115.675 31.9344 115.937 32.3677C116.198 32.8009 116.329 33.453 116.329 34.3239C116.329 35.224 116.196 35.8845 115.931 36.3054C115.667 36.7263 115.258 36.9367 114.706 36.9367C114.147 36.9367 113.737 36.7224 113.475 36.2936C113.214 35.8649 113.083 35.2106 113.083 34.3306C113.083 33.426 113.216 32.7644 113.481 32.3458C113.745 31.9272 114.154 31.7178 114.706 31.7178ZM110.895 31.7178C111.454 31.7178 111.864 31.9344 112.126 32.3677C112.387 32.8009 112.518 33.453 112.518 34.3239C112.518 35.224 112.385 35.8845 112.12 36.3054C111.856 36.7263 111.447 36.9367 110.895 36.9367C110.336 36.9367 109.926 36.7224 109.664 36.2936C109.403 35.8649 109.272 35.2106 109.272 34.3306C109.272 33.426 109.405 32.7644 109.669 32.3458C109.934 31.9272 110.343 31.7178 110.895 31.7178ZM104.861 31.7145C105.091 31.7145 105.291 31.7375 105.463 31.7835C105.635 31.8295 105.79 31.9008 105.928 31.9973C106.078 32.105 106.191 32.2352 106.267 32.3879C106.344 32.5405 106.382 32.719 106.382 32.9232C106.382 33.1993 106.29 33.4418 106.106 33.6505C105.921 33.8593 105.701 33.9917 105.444 34.0478V34.095C105.551 34.1152 105.665 34.15 105.787 34.1993C105.908 34.2487 106.021 34.3217 106.126 34.4182C106.231 34.5147 106.316 34.6387 106.382 34.7902C106.448 34.9418 106.481 35.1264 106.481 35.3441C106.481 35.5708 106.441 35.779 106.363 35.9687C106.285 36.1584 106.174 36.3262 106.031 36.4721C105.883 36.6247 105.704 36.7403 105.495 36.8189C105.286 36.8974 105.049 36.9367 104.783 36.9367C104.528 36.9367 104.276 36.9064 104.026 36.8458C103.776 36.7852 103.566 36.7123 103.396 36.627V35.9165H103.443C103.586 36.0198 103.778 36.1185 104.019 36.2128C104.26 36.3071 104.501 36.3542 104.742 36.3542C104.881 36.3542 105.02 36.3323 105.16 36.2886C105.299 36.2448 105.416 36.1735 105.509 36.0748C105.6 35.976 105.669 35.8671 105.717 35.7482C105.765 35.6292 105.789 35.4788 105.789 35.297C105.789 35.1152 105.762 34.9659 105.708 34.8492C105.655 34.7324 105.581 34.6404 105.485 34.5731C105.39 34.5057 105.277 34.4592 105.146 34.4333C105.015 34.4075 104.874 34.3946 104.722 34.3946H104.432V33.8357H104.657C104.964 33.8357 105.213 33.7639 105.405 33.6202C105.597 33.4765 105.693 33.2678 105.693 32.9939C105.693 32.8682 105.668 32.7599 105.618 32.669C105.568 32.5781 105.504 32.5057 105.427 32.4518C105.341 32.3935 105.245 32.3531 105.141 32.3306C105.036 32.3082 104.925 32.297 104.807 32.297C104.684 32.297 104.561 32.3116 104.439 32.3407C104.316 32.3699 104.195 32.4081 104.077 32.4552C103.968 32.5001 103.873 32.5472 103.793 32.5966C103.712 32.646 103.64 32.692 103.576 32.7347H103.535V32.0242C103.683 31.9457 103.884 31.8744 104.137 31.8104C104.39 31.7465 104.632 31.7145 104.861 31.7145ZM108.338 35.8727V36.8323H107.524V35.8727H108.338ZM114.706 32.2734C114.517 32.2734 114.362 32.3177 114.241 32.4064C114.119 32.4951 114.023 32.6269 113.953 32.802C113.884 32.9726 113.838 33.1881 113.813 33.4485C113.788 33.7089 113.775 34.0029 113.775 34.3306C113.775 34.6808 113.786 34.9737 113.808 35.2094C113.829 35.4451 113.877 35.6561 113.949 35.8424C114.015 36.0153 114.109 36.1483 114.23 36.2414C114.352 36.3346 114.511 36.3812 114.706 36.3812C114.895 36.3812 115.05 36.3368 115.171 36.2482C115.293 36.1595 115.388 36.0276 115.456 35.8525C115.522 35.6864 115.568 35.4766 115.596 35.2229C115.623 34.9693 115.637 34.6696 115.637 34.3239C115.637 33.9805 115.623 33.6819 115.596 33.4283C115.568 33.1746 115.521 32.9636 115.453 32.7953C115.384 32.6247 115.291 32.4951 115.171 32.4064C115.052 32.3177 114.897 32.2734 114.706 32.2734ZM110.895 32.2734C110.706 32.2734 110.551 32.3177 110.43 32.4064C110.308 32.4951 110.212 32.6269 110.142 32.802C110.073 32.9726 110.027 33.1881 110.002 33.4485C109.977 33.7089 109.964 34.0029 109.964 34.3306C109.964 34.6808 109.975 34.9737 109.997 35.2094C110.018 35.4451 110.065 35.6561 110.138 35.8424C110.204 36.0153 110.298 36.1483 110.419 36.2414C110.541 36.3346 110.7 36.3812 110.895 36.3812C111.084 36.3812 111.239 36.3368 111.36 36.2482C111.482 36.1595 111.577 36.0276 111.645 35.8525C111.711 35.6864 111.757 35.4766 111.785 35.2229C111.812 34.9693 111.826 34.6696 111.826 34.3239C111.826 33.9805 111.812 33.6819 111.785 33.4283C111.757 33.1746 111.71 32.9636 111.641 32.7953C111.573 32.6247 111.48 32.4951 111.36 32.4064C111.241 32.3177 111.086 32.2734 110.895 32.2734ZM92.9236 33.5246V35.2485H92.4873V33.5246H92.9236ZM89.8693 33.4384V35.1623H89.433V33.4384H89.8693ZM81.4188 29.1858C81.9779 29.1858 82.3881 29.4024 82.6494 29.8357C82.9108 30.2689 83.0415 30.921 83.0415 31.7919C83.0415 32.692 82.9091 33.3525 82.6443 33.7734C82.3796 34.1943 81.9711 34.4047 81.4188 34.4047C80.8598 34.4047 80.4496 34.1904 80.1883 33.7616C79.9269 33.3329 79.7962 32.6786 79.7962 31.7986C79.7962 30.894 79.9286 30.2324 80.1934 29.8138C80.4581 29.3952 80.8666 29.1858 81.4188 29.1858ZM77.6078 29.1858C78.1668 29.1858 78.577 29.4024 78.8384 29.8357C79.0997 30.2689 79.2304 30.921 79.2304 31.7919C79.2304 32.692 79.098 33.3525 78.8333 33.7734C78.5685 34.1943 78.16 34.4047 77.6078 34.4047C77.0487 34.4047 76.6385 34.1904 76.3772 33.7616C76.1159 33.3329 75.9852 32.6786 75.9852 31.7986C75.9852 30.894 76.1176 30.2324 76.3823 29.8138C76.6471 29.3952 77.0556 29.1858 77.6078 29.1858ZM71.5742 29.1825C71.8037 29.1825 72.0042 29.2055 72.1758 29.2515C72.3474 29.2975 72.5025 29.3688 72.6411 29.4653C72.7911 29.573 72.9042 29.7032 72.9803 29.8559C73.0564 30.0085 73.0945 30.187 73.0945 30.3912C73.0945 30.6673 73.0025 30.9098 72.8184 31.1185C72.6343 31.3273 72.4139 31.4597 72.1571 31.5158V31.563C72.2639 31.5832 72.3781 31.618 72.4997 31.6673C72.6212 31.7167 72.7343 31.7897 72.8388 31.8862C72.9434 31.9827 73.0286 32.1067 73.0945 32.2582C73.1604 32.4098 73.1934 32.5944 73.1934 32.8121C73.1934 33.0388 73.1542 33.247 73.0758 33.4367C72.9974 33.6264 72.8866 33.7942 72.7434 33.9401C72.5957 34.0927 72.4173 34.2083 72.2082 34.2869C71.9991 34.3654 71.7617 34.4047 71.4958 34.4047C71.2412 34.4047 70.989 34.3744 70.739 34.3138C70.489 34.2532 70.2788 34.1803 70.1084 34.095V33.3845H70.1561C70.2993 33.4878 70.4913 33.5865 70.7322 33.6808C70.9731 33.7751 71.214 33.8222 71.4549 33.8222C71.5935 33.8222 71.7327 33.8003 71.8724 33.7566C72.0122 33.7128 72.1287 33.6415 72.2218 33.5428C72.3127 33.444 72.3821 33.3351 72.4298 33.2162C72.4775 33.0972 72.5014 32.9468 72.5014 32.765C72.5014 32.5832 72.4747 32.4339 72.4213 32.3172C72.3679 32.2004 72.2934 32.1084 72.198 32.0411C72.1025 31.9737 71.9895 31.9272 71.8588 31.9013C71.7281 31.8755 71.5867 31.8626 71.4344 31.8626H71.1447V31.3037H71.3696C71.6764 31.3037 71.9258 31.2319 72.1179 31.0882C72.3099 30.9445 72.4059 30.7358 72.4059 30.4619C72.4059 30.3362 72.3809 30.2279 72.3309 30.137C72.2809 30.0461 72.2173 29.9737 72.14 29.9198C72.0537 29.8615 71.9582 29.8211 71.8537 29.7986C71.7492 29.7762 71.6378 29.765 71.5196 29.765C71.3969 29.765 71.2742 29.7796 71.1515 29.8087C71.0288 29.8379 70.9083 29.8761 70.7901 29.9232C70.6811 29.9681 70.5862 30.0152 70.5055 30.0646C70.4248 30.114 70.3527 30.16 70.289 30.2027H70.2481V29.4922C70.3959 29.4137 70.5964 29.3424 70.8498 29.2784C71.1032 29.2145 71.3446 29.1825 71.5742 29.1825ZM75.0512 33.3407V34.3003H74.2365V33.3407H75.0512ZM81.4188 29.7414C81.2302 29.7414 81.0751 29.7857 80.9535 29.8744C80.832 29.9631 80.736 30.0949 80.6655 30.27C80.5973 30.4406 80.5507 30.6561 80.5257 30.9165C80.5007 31.1769 80.4882 31.4709 80.4882 31.7986C80.4882 32.1488 80.499 32.4417 80.5206 32.6774C80.5422 32.9131 80.5894 33.1241 80.6621 33.3104C80.728 33.4833 80.8217 33.6163 80.9433 33.7094C81.0649 33.8026 81.2234 33.8492 81.4188 33.8492C81.6075 33.8492 81.7626 33.8048 81.8842 33.7162C82.0057 33.6275 82.1006 33.4956 82.1688 33.3205C82.2347 33.1544 82.2813 32.9446 82.3086 32.6909C82.3358 32.4373 82.3495 32.1376 82.3495 31.7919C82.3495 31.4485 82.3358 31.1499 82.3086 30.8963C82.2813 30.6426 82.2336 30.4316 82.1654 30.2633C82.0972 30.0927 82.0035 29.9631 81.8842 29.8744C81.7648 29.7857 81.6097 29.7414 81.4188 29.7414ZM77.6078 29.7414C77.4192 29.7414 77.2641 29.7857 77.1425 29.8744C77.0209 29.9631 76.9249 30.0949 76.8544 30.27C76.7863 30.4406 76.7397 30.6561 76.7147 30.9165C76.6897 31.1769 76.6772 31.4709 76.6772 31.7986C76.6772 32.1488 76.688 32.4417 76.7096 32.6774C76.7311 32.9131 76.7783 33.1241 76.851 33.3104C76.9169 33.4833 77.0107 33.6163 77.1323 33.7094C77.2538 33.8026 77.4123 33.8492 77.6078 33.8492C77.7964 33.8492 77.9515 33.8048 78.0731 33.7162C78.1947 33.6275 78.2896 33.4956 78.3577 33.3205C78.4236 33.1544 78.4702 32.9446 78.4975 32.6909C78.5248 32.4373 78.5384 32.1376 78.5384 31.7919C78.5384 31.4485 78.5248 31.1499 78.4975 30.8963C78.4702 30.6426 78.4225 30.4316 78.3543 30.2633C78.2861 30.0927 78.1924 29.9631 78.0731 29.8744C77.9538 29.7857 77.7987 29.7414 77.6078 29.7414ZM92.9236 30.9387V32.6626H92.4873V30.9387H92.9236ZM89.8693 30.8525V32.5764H89.433V30.8525H89.8693ZM89.8693 28.2666V29.9906H89.433V28.2666H89.8693ZM104.268 13.1824V13.6134H102.523V13.1824H104.268ZM106.886 13.1824V13.6134H105.141V13.1824H106.886ZM109.504 13.1824V13.6134H107.759V13.1824H109.504ZM112.122 13.1824V13.6134H110.377V13.1824H112.122ZM114.74 13.1824V13.6134H112.995V13.1824H114.74ZM103.396 10.1655V10.5965H101.65V10.1655H103.396ZM106.014 10.1655V10.5965H104.268V10.1655H106.014ZM108.631 10.1655V10.5965H106.886V10.1655H108.631ZM111.249 10.1655V10.5965H109.504V10.1655H111.249ZM113.867 10.1655V10.5965H112.122V10.1655H113.867ZM116.485 10.1655V10.5965H114.74V10.1655H116.485Z" fill="black"/>
<path d="M91.1783 51.5395H77.2158V65.3308H91.1783V51.5395Z" fill="#F7D070"/>
<path fill-rule="evenodd" clip-rule="evenodd" d="M78.9611 53.2634H83.3244V57.5732H78.9611V53.2634ZM85.0697 53.2634H89.433V57.5732H85.0697V53.2634ZM85.0697 59.2971H89.433V63.6069H85.0697V59.2971ZM78.9611 59.2971H83.3244V63.6069H78.9611V59.2971Z" fill="black"/>
<path d="M63.2533 13.6133H49.2907V27.4047H63.2533V13.6133Z" fill="#F7D070"/>
<path fill-rule="evenodd" clip-rule="evenodd" d="M61.508 15.3373H51.0361V25.6808H61.508V15.3373ZM50.1634 14.4753H62.3806V26.5427H50.1634V14.4753ZM56.272 21.371C55.79 21.371 55.3993 20.9851 55.3993 20.509C55.3993 20.033 55.79 19.6471 56.272 19.6471C56.754 19.6471 57.1447 20.033 57.1447 20.509C57.1447 20.9851 56.754 21.371 56.272 21.371Z" fill="black"/>
<path d="M77.2158 13.6133H68.4892V20.509H77.2158V13.6133Z" fill="#F7D070"/>
<path d="M72.8525 18.0508C73.4048 18.0508 73.8525 17.6078 73.8525 17.0612C73.8525 16.5146 73.4048 16.0715 72.8525 16.0715C72.3003 16.0715 71.8525 16.5146 71.8525 17.0612C71.8525 17.6078 72.3003 18.0508 72.8525 18.0508Z" fill="black"/>
<path d="M76.3431 14.4753H69.3619V15.465H76.3431V14.4753Z" fill="black"/>
<path fill-rule="evenodd" clip-rule="evenodd" d="M69.3619 17.9232L72.8525 18.7851L76.3431 17.9232V18.7851L72.8525 19.6471L69.3619 18.7851V17.9232Z" fill="black"/>
<path d="M70.3619 15.3373H69.3619V18.7851H70.3619V15.3373Z" fill="black"/>
<path d="M76.4705 15.3373H75.4705V18.7851H76.4705V15.3373Z" fill="black"/>
<path d="M58.0173 51.5395H49.2907V58.4352H58.0173V51.5395Z" fill="#F7D070"/>
<path d="M53.654 55.977C54.2063 55.977 54.654 55.5339 54.654 54.9873C54.654 54.4408 54.2063 53.9977 53.654 53.9977C53.1017 53.9977 52.654 54.4408 52.654 54.9873C52.654 55.5339 53.1017 55.977 53.654 55.977Z" fill="black"/>
<path d="M57.1447 52.4015H50.1634V53.3911H57.1447V52.4015Z" fill="black"/>
<path fill-rule="evenodd" clip-rule="evenodd" d="M50.1634 55.8493L53.654 56.7112L57.1447 55.8493V56.7112L53.654 57.5732L50.1634 56.7112V55.8493Z" fill="black"/>
<path d="M51.1634 53.2634H50.1634V56.7112H51.1634V53.2634Z" fill="black"/>
<path d="M57.272 53.2634H56.272V56.7112H57.272V53.2634Z" fill="black"/>
<path d="M60.6353 30.8525H49.2907V37.7482H60.6353V30.8525Z" fill="#F7D070"/>
<path fill-rule="evenodd" clip-rule="evenodd" d="M57.1497 31.7145C58.5928 31.7145 59.7626 32.8722 59.7626 34.3003C59.7626 35.7285 58.5928 36.8862 57.1497 36.8862H51.9036C50.4605 36.8862 49.2907 35.7285 49.2907 34.3003C49.2907 32.8722 50.4605 31.7145 51.9036 31.7145H57.1497ZM57.2935 32.5764H51.1781C50.216 32.5764 49.4362 33.3483 49.4362 34.3003C49.4362 35.2524 50.216 36.0243 51.1781 36.0243H57.2935C58.2555 36.0243 59.0354 35.2524 59.0354 34.3003C59.0354 33.3483 58.2555 32.5764 57.2935 32.5764Z" fill="black"/>
<path d="M57.1447 35.29C57.6969 35.29 58.1447 34.8469 58.1447 34.3003C58.1447 33.7538 57.6969 33.3107 57.1447 33.3107C56.5924 33.3107 56.1447 33.7538 56.1447 34.3003C56.1447 34.8469 56.5924 35.29 57.1447 35.29Z" fill="black"/>
<path d="M52.7813 30.8525H49.2907V37.7482H52.7813V30.8525Z" fill="black"/>
<path d="M84.8401 97.2232H80.6447V96.3028C81 96.025 81.319 95.7624 81.6015 95.5149C81.884 95.2674 82.1326 95.0326 82.3474 94.8103C82.626 94.5199 82.828 94.2649 82.9533 94.0452C83.0786 93.8255 83.1412 93.5995 83.1412 93.3672C83.1412 93.1045 83.0619 92.9031 82.9034 92.763C82.7449 92.6228 82.5238 92.5528 82.24 92.5528C82.0943 92.5528 81.9568 92.5704 81.8277 92.6058C81.6986 92.6411 81.5676 92.6866 81.4346 92.7422C81.3043 92.8002 81.193 92.8596 81.101 92.9202L80.8939 93.0566H80.7827V91.8255C80.9438 91.7497 81.1956 91.6721 81.5382 91.5925C81.8808 91.513 82.2106 91.4732 82.5276 91.4732C83.2051 91.4732 83.7183 91.6222 84.0673 91.9202C84.4163 92.2182 84.5908 92.6374 84.5908 93.1778C84.5908 93.5111 84.5115 93.8375 84.353 94.1569C84.1945 94.4764 83.9312 94.8192 83.563 95.1853C83.3329 95.4101 83.1092 95.6102 82.8919 95.7857C82.6746 95.9612 82.5174 96.0856 82.4202 96.1588H84.8401V97.2232ZM89.906 95.9088H89.1352V97.2384H87.7508V95.9088H85.2389V94.8558L87.7048 91.5831H89.1352V94.8937H89.906V95.9088ZM87.7508 94.8937V92.9732L86.305 94.8937H87.7508ZM91.973 97.2232H90.6155V95.7346H91.973V97.2232ZM97.223 94.4013C97.223 94.8886 97.1834 95.3154 97.1042 95.6816C97.0249 96.0477 96.8984 96.3533 96.7245 96.5982C96.5507 96.8432 96.3244 97.0282 96.0457 97.1532C95.767 97.2782 95.4257 97.3407 95.0218 97.3407C94.6204 97.3407 94.2804 97.2782 94.0017 97.1532C93.723 97.0282 93.4955 96.8407 93.3191 96.5907C93.1452 96.3432 93.0187 96.0383 92.9394 95.6759C92.8602 95.3135 92.8205 94.8899 92.8205 94.405C92.8205 93.905 92.8595 93.4783 92.9375 93.1247C93.0155 92.7712 93.1452 92.4669 93.3268 92.2119C93.5057 91.9618 93.7358 91.7756 94.017 91.6531C94.2983 91.5307 94.6332 91.4694 95.0218 91.4694C95.4334 91.4694 95.7766 91.5332 96.0515 91.6607C96.3263 91.7882 96.5519 91.9783 96.7283 92.2308C96.9022 92.4783 97.0281 92.7838 97.1061 93.1475C97.1841 93.5111 97.223 93.929 97.223 94.4013ZM95.7849 94.4013C95.7849 93.7043 95.7268 93.215 95.6105 92.9334C95.4941 92.6519 95.2979 92.5111 95.0218 92.5111C94.7482 92.5111 94.5527 92.6519 94.4351 92.9334C94.3174 93.215 94.2586 93.7068 94.2586 94.4088C94.2586 95.0957 94.3174 95.5824 94.4351 95.8691C94.5527 96.1557 94.7482 96.299 95.0218 96.299C95.2954 96.299 95.4909 96.1557 95.6085 95.8691C95.7261 95.5824 95.7849 95.0932 95.7849 94.4013ZM102.224 94.4013C102.224 94.8886 102.184 95.3154 102.105 95.6816C102.026 96.0477 101.899 96.3533 101.725 96.5982C101.551 96.8432 101.325 97.0282 101.046 97.1532C100.768 97.2782 100.426 97.3407 100.023 97.3407C99.6211 97.3407 99.2811 97.2782 99.0024 97.1532C98.7238 97.0282 98.4962 96.8407 98.3198 96.5907C98.146 96.3432 98.0194 96.0383 97.9402 95.6759C97.8609 95.3135 97.8213 94.8899 97.8213 94.405C97.8213 93.905 97.8603 93.4783 97.9383 93.1247C98.0162 92.7712 98.146 92.4669 98.3275 92.2119C98.5065 91.9618 98.7366 91.7756 99.0178 91.6531C99.299 91.5307 99.6339 91.4694 100.023 91.4694C100.434 91.4694 100.777 91.5332 101.052 91.6607C101.327 91.7882 101.553 91.9783 101.729 92.2308C101.903 92.4783 102.029 92.7838 102.107 93.1475C102.185 93.5111 102.224 93.929 102.224 94.4013ZM100.786 94.4013C100.786 93.7043 100.728 93.215 100.611 92.9334C100.495 92.6519 100.299 92.5111 100.023 92.5111C99.749 92.5111 99.5534 92.6519 99.4358 92.9334C99.3182 93.215 99.2594 93.7068 99.2594 94.4088C99.2594 95.0957 99.3182 95.5824 99.4358 95.8691C99.5534 96.1557 99.749 96.299 100.023 96.299C100.296 96.299 100.492 96.1557 100.609 95.8691C100.727 95.5824 100.786 95.0932 100.786 94.4013Z" fill="black"/>
<path d="M99.0323 89.4656H78.0884V91.1895H99.0323V89.4656Z" fill="#F7D070"/>
<g opacity="0.24">
<g opacity="0.24">
<g opacity="0.24">
<path opacity="0.24" d="M104.488 88.302C111.599 88.302 117.365 82.5964 117.365 75.5584C117.365 68.5203 111.599 62.8148 104.488 62.8148C97.3762 62.8148 91.611 68.5203 91.611 75.5584C91.611 82.5964 97.3762 88.302 104.488 88.302Z" fill="#FFC107"/>
<path opacity="0.24" fill-rule="evenodd" clip-rule="evenodd" d="M99.2171 72.0828C99.5578 72.0828 99.8524 72.1451 100.101 72.2694C100.35 72.3937 100.556 72.5553 100.719 72.7536C100.883 72.9521 101.005 73.1739 101.087 73.4196C101.169 73.6651 101.21 73.9125 101.21 74.1611C101.21 74.41 101.164 74.6572 101.072 74.9026C100.98 75.1483 100.849 75.3701 100.679 75.5684C100.508 75.7669 100.3 75.9285 100.055 76.0528C99.8097 76.1771 99.5301 76.2394 99.2171 76.2394H97.2338V79.0339H96.2935V72.0828H99.2171ZM104.893 72.0828C105.242 72.0828 105.54 72.1451 105.788 72.2694C106.036 72.3937 106.241 72.5553 106.402 72.7536C106.562 72.9521 106.679 73.1739 106.753 73.4196C106.827 73.6651 106.864 73.9125 106.864 74.1611C106.864 74.3562 106.837 74.5495 106.784 74.7413C106.73 74.9329 106.649 75.1131 106.542 75.2808C106.435 75.449 106.306 75.6025 106.155 75.7402C106.004 75.8779 105.831 75.987 105.637 76.068L106.934 79.0339H105.909L104.733 76.2394H102.943V79.0339H102.018V72.0828H104.893ZM110.16 72.0828C110.523 72.0828 110.859 72.139 111.169 72.2512C111.479 72.363 111.746 72.5196 111.97 72.7208C112.194 72.9216 112.369 73.1642 112.494 73.4475C112.62 73.7308 112.682 74.0441 112.682 74.3867V76.74C112.682 77.0895 112.618 77.4059 112.49 77.6892C112.361 77.9728 112.183 78.213 111.955 78.411C111.728 78.6088 111.461 78.762 111.154 78.8707C110.848 78.9797 110.517 79.0339 110.16 79.0339C109.791 79.0339 109.452 78.9797 109.142 78.8707C108.832 78.762 108.566 78.6088 108.346 78.411C108.125 78.213 107.953 77.9728 107.832 77.6892C107.709 77.4059 107.649 77.0895 107.649 76.74V74.3867C107.649 74.0441 107.709 73.7308 107.832 73.4475C107.953 73.1642 108.125 72.9216 108.346 72.7208C108.566 72.5196 108.832 72.363 109.142 72.2512C109.452 72.139 109.791 72.0828 110.16 72.0828ZM110.16 72.9234C109.944 72.9234 109.739 72.953 109.545 73.0124C109.352 73.0717 109.184 73.1656 109.044 73.294C108.902 73.4227 108.789 73.5858 108.704 73.7836C108.619 73.9813 108.576 74.2187 108.576 74.4954V76.6313C108.576 76.908 108.619 77.1454 108.704 77.3431C108.789 77.5408 108.904 77.7023 109.048 77.8279C109.193 77.9528 109.362 78.0453 109.555 78.1046C109.749 78.164 109.951 78.1934 110.16 78.1934C110.377 78.1934 110.58 78.164 110.771 78.1046C110.961 78.0453 111.13 77.9528 111.277 77.8279C111.424 77.7023 111.541 77.5408 111.626 77.3431C111.712 77.1454 111.755 76.908 111.755 76.6313V74.4954C111.755 74.2187 111.712 73.9813 111.626 73.7836C111.541 73.5858 111.426 73.4227 111.282 73.294C111.138 73.1656 110.969 73.0717 110.775 73.0124C110.582 72.953 110.377 72.9234 110.16 72.9234ZM99.0227 72.9303H97.2338V75.3818H99.0227C99.3908 75.3818 99.692 75.2744 99.9274 75.0589C100.162 74.8438 100.28 74.5445 100.28 74.1611C100.28 73.7844 100.162 73.4851 99.9274 73.263C99.692 73.0412 99.3908 72.9303 99.0227 72.9303ZM104.703 72.9303H102.943V75.3818H104.703C105.064 75.3818 105.361 75.2744 105.592 75.0589C105.823 74.8438 105.939 74.5445 105.939 74.1611C105.939 73.7844 105.823 73.4851 105.592 73.263C105.361 73.0412 105.064 72.9303 104.703 72.9303Z" fill="#453738"/>
</g>
<g opacity="0.24">
<path opacity="0.24" fill-rule="evenodd" clip-rule="evenodd" d="M62.9959 75.7514H71.1902V90.8121H80.5552V75.7514H88.7495V112.824H80.5552V98.9216H71.1902V112.824H62.9959V75.7514Z" fill="#CDC6C1"/>
<path opacity="0.24" fill-rule="evenodd" clip-rule="evenodd" d="M62.9959 94.8668L71.1902 98.9216L62.9959 112.824V94.8668ZM80.5552 90.8121V98.9216L71.1902 90.8121H80.5552ZM88.7495 75.7514V90.8121L80.5552 75.7514H88.7495Z" fill="#938784"/>
<path opacity="0.24" fill-rule="evenodd" clip-rule="evenodd" d="M88.7489 102.37L88.7495 112.824H80.5552L88.7489 102.37ZM88.7495 90.8121L88.7489 102.37L80.5552 98.9216L88.7495 90.8121ZM71.1899 90.812L71.1902 98.9216L62.9959 94.8668L71.1899 90.812ZM71.1902 75.7514L71.1899 90.812L62.9959 83.2817L71.1902 75.7514Z" fill="#AEA5A3"/>
</g>
</g>
</g>
</svg>
